<?xml version="1.0" standalone="no"?>
<!DOCTYPE svg PUBLIC "-//W3C//DTD SVG 20010904//EN"
 "http://www.w3.org/TR/2001/REC-SVG-20010904/DTD/svg10.dtd">
<svg version="1.0" xmlns="http://www.w3.org/2000/svg"
 width="888.000000pt" height="888.000000pt" viewBox="0 0 888.000000 888.000000"
 preserveAspectRatio="xMidYMid meet">
<metadata>
Created by potrace 1.14, written by Peter Selinger 2001-2017
</metadata>
<g transform="translate(0.000000,888.000000) scale(0.100000,-0.100000)"
fill="#000000" stroke="none">
<path d="M1009 8876 c-2 -2 -17 -6 -34 -9 -42 -7 -137 -39 -153 -50 -7 -5 -30
-19 -51 -31 -22 -11 -60 -39 -86 -60 -47 -40 -135 -147 -135 -164 0 -5 -7 -15
-15 -22 -8 -7 -13 -16 -10 -20 3 -5 1 -11 -5 -15 -8 -5 -27 -56 -48 -135 -8
-27 -9 -7822 -1 -7855 12 -53 44 -142 56 -156 7 -8 13 -20 13 -25 0 -26 106
-149 177 -205 21 -17 114 -73 123 -75 3 0 12 -3 20 -6 42 -17 89 -31 120 -36
45 -8 195 -8 240 0 50 9 142 39 160 53 8 6 26 16 40 23 14 7 34 18 45 24 34
22 165 160 165 174 0 8 4 14 9 14 13 0 69 131 85 202 8 35 15 116 16 181 0 64
1 123 1 130 0 6 1 221 0 477 0 256 0 472 0 480 1 8 1 296 1 640 -1 344 -1 632
0 640 0 8 0 224 -1 480 0 256 0 472 0 480 1 8 0 152 0 320 0 168 0 312 0 320
1 8 0 116 0 240 0 124 0 232 0 240 1 8 1 80 0 160 0 80 0 152 0 160 0 8 1 188
0 400 0 212 0 392 0 400 1 8 1 188 0 400 0 212 0 392 1 400 0 8 0 80 -1 160 0
80 0 152 0 160 1 29 -1 534 -3 815 -1 171 -15 235 -75 354 -78 156 -265 297
-433 328 -33 6 -216 13 -221 9z"/>
<path d="M2939 8875 c-3 -2 -16 -7 -30 -9 -13 -2 -24 -5 -24 -6 0 -1 -11 -3
-25 -6 -42 -7 -182 -81 -225 -119 -22 -19 -43 -35 -47 -35 -5 0 -8 -4 -8 -10
0 -5 -8 -18 -17 -28 -70 -73 -127 -184 -150 -292 -13 -66 -20 -276 -9 -287 3
-3 1 -14 -4 -24 -7 -12 -7 -20 0 -24 6 -4 7 -13 1 -24 -6 -10 -6 -23 -1 -31 5
-8 6 -18 3 -23 -8 -13 -9 -77 -1 -90 3 -6 2 -19 -3 -28 -6 -12 -5 -20 1 -24 6
-4 7 -11 3 -18 -8 -13 -7 -102 1 -116 4 -5 2 -12 -3 -16 -6 -3 -7 -15 -2 -27
4 -12 5 -37 1 -55 -5 -18 -4 -33 0 -33 5 0 5 -13 0 -30 -5 -18 -5 -30 0 -30 6
0 5 -11 0 -26 -6 -15 -6 -32 -1 -42 6 -11 6 -24 0 -34 -6 -11 -6 -19 1 -23 7
-4 7 -12 0 -25 -7 -13 -7 -21 0 -25 6 -4 8 -11 4 -16 -7 -13 -8 -168 0 -176 3
-3 1 -14 -4 -24 -7 -12 -7 -20 0 -24 6 -4 7 -13 1 -24 -6 -10 -6 -23 -1 -31 5
-8 6 -18 3 -23 -8 -13 -9 -77 -1 -90 3 -6 2 -19 -3 -28 -6 -12 -5 -20 1 -24 6
-4 7 -11 3 -18 -8 -13 -7 -102 1 -116 4 -5 2 -12 -3 -16 -6 -3 -7 -15 -2 -27
4 -12 5 -37 1 -55 -5 -18 -4 -33 0 -33 5 0 5 -13 0 -30 -5 -18 -5 -30 0 -30 6
0 5 -11 0 -26 -6 -15 -6 -32 -1 -42 6 -11 6 -24 0 -34 -6 -11 -6 -19 1 -23 7
-4 7 -12 0 -25 -7 -13 -7 -21 0 -25 6 -4 8 -11 4 -16 -7 -13 -8 -168 0 -176 3
-3 1 -14 -4 -24 -7 -12 -7 -20 0 -24 6 -4 7 -13 1 -24 -6 -10 -6 -23 -1 -31 5
-8 6 -18 3 -23 -8 -13 -9 -77 -1 -90 3 -6 2 -19 -3 -28 -6 -12 -5 -20 1 -24 6
-4 7 -11 3 -18 -8 -13 -7 -102 1 -116 4 -5 2 -12 -3 -16 -6 -3 -7 -15 -2 -27
4 -12 5 -37 1 -55 -5 -18 -4 -33 0 -33 5 0 5 -13 0 -30 -5 -18 -5 -30 0 -30 6
0 5 -11 0 -26 -6 -15 -6 -32 -1 -42 6 -11 6 -24 0 -34 -6 -11 -6 -19 1 -23 7
-4 7 -12 0 -25 -7 -13 -7 -21 0 -25 6 -4 8 -11 4 -16 -7 -13 -8 -168 0 -176 3
-3 1 -14 -4 -24 -7 -12 -7 -20 0 -24 6 -4 7 -13 1 -24 -6 -10 -6 -23 -1 -31 5
-8 6 -18 3 -23 -8 -13 -9 -77 -1 -90 3 -6 2 -19 -3 -28 -6 -12 -5 -20 1 -24 6
-4 7 -11 3 -18 -8 -13 -7 -102 1 -116 4 -5 2 -12 -3 -16 -6 -3 -7 -15 -2 -27
4 -12 5 -37 1 -55 -5 -18 -4 -33 0 -33 5 0 5 -13 0 -30 -5 -18 -5 -30 0 -30 6
0 5 -11 0 -26 -6 -15 -6 -32 -1 -42 6 -11 6 -24 0 -34 -6 -11 -6 -19 1 -23 7
-4 7 -12 0 -25 -7 -13 -7 -21 0 -25 6 -4 8 -11 4 -16 -7 -13 -8 -168 0 -176 3
-3 1 -14 -4 -24 -7 -12 -7 -20 0 -24 6 -4 7 -13 1 -24 -6 -10 -6 -23 -1 -31 5
-8 6 -18 3 -23 -8 -13 -9 -77 -1 -90 3 -6 2 -19 -3 -28 -6 -12 -5 -20 1 -24 6
-4 8 -11 4 -16 -9 -16 -10 -79 -1 -79 4 0 5 -5 2 -10 -4 -6 -6 -36 -6 -68 1
-62 1 -73 0 -145 0 -27 2 -51 5 -54 2 -3 1 -16 -4 -29 -6 -14 -6 -26 0 -29 6
-4 7 -13 1 -24 -5 -9 -6 -23 -1 -31 4 -7 5 -23 0 -35 -5 -12 -4 -28 0 -35 5
-8 6 -19 3 -24 -8 -12 -7 -106 1 -113 2 -3 1 -16 -4 -29 -6 -14 -6 -26 0 -29
6 -4 7 -13 1 -24 -5 -9 -6 -23 -1 -31 4 -7 5 -23 0 -35 -5 -12 -4 -28 0 -35 5
-8 6 -19 3 -24 -8 -12 -7 -106 1 -113 2 -3 1 -16 -4 -29 -6 -14 -6 -26 0 -29
6 -4 7 -13 1 -24 -5 -9 -6 -23 -1 -31 4 -7 5 -23 0 -35 -5 -12 -4 -28 0 -35 5
-8 6 -19 3 -24 -8 -12 -7 -106 1 -113 2 -3 1 -16 -4 -29 -6 -14 -6 -26 0 -29
6 -4 7 -13 1 -24 -5 -9 -6 -23 -1 -31 4 -7 5 -23 0 -35 -5 -12 -4 -28 0 -35 5
-8 6 -19 3 -24 -8 -12 -7 -106 1 -113 2 -3 1 -16 -4 -29 -6 -14 -6 -26 0 -29
6 -4 7 -13 1 -24 -5 -9 -6 -23 -1 -31 4 -7 5 -23 0 -35 -5 -12 -4 -28 0 -35 5
-8 6 -19 3 -24 -8 -12 -7 -106 1 -113 2 -3 1 -16 -4 -29 -6 -14 -6 -26 0 -29
6 -4 7 -13 1 -24 -5 -9 -6 -23 -1 -31 4 -7 5 -23 0 -35 -5 -12 -4 -28 0 -35 5
-8 6 -19 3 -24 -8 -12 -7 -106 1 -113 2 -3 1 -16 -4 -29 -6 -14 -6 -26 0 -29
6 -4 7 -13 1 -24 -5 -9 -6 -23 -1 -31 4 -7 5 -23 0 -35 -5 -12 -4 -28 0 -35 5
-8 6 -19 3 -24 -8 -12 -7 -106 1 -113 2 -3 1 -16 -4 -29 -6 -14 -6 -26 0 -29
6 -4 7 -13 1 -24 -5 -9 -6 -23 -2 -30 5 -7 5 -30 1 -51 -4 -21 -4 -44 1 -51 4
-7 3 -21 -2 -30 -6 -12 -5 -20 1 -24 6 -4 7 -11 3 -18 -8 -13 -7 -102 1 -116
4 -5 2 -12 -3 -16 -6 -3 -7 -15 -2 -27 4 -12 5 -37 1 -55 -5 -18 -4 -33 0 -33
5 0 5 -13 0 -30 -5 -18 -5 -30 0 -30 6 0 5 -12 -1 -27 -6 -16 -10 -30 -9 -33
2 -3 6 -15 11 -27 5 -13 4 -25 -2 -28 -5 -4 -7 -11 -3 -17 3 -5 8 -33 9 -61 2
-29 4 -52 5 -52 2 0 5 -16 14 -59 3 -16 24 -67 48 -114 33 -67 59 -103 121
-164 43 -43 85 -78 93 -78 8 0 14 -4 14 -9 0 -9 100 -56 153 -72 18 -6 41 -13
52 -17 33 -11 4960 -13 4990 -2 14 5 40 12 56 15 80 14 235 109 302 184 34 38
97 136 97 151 0 5 5 10 12 10 6 0 9 3 5 6 -3 3 3 27 14 52 26 61 33 107 34
217 0 159 -25 234 -140 415 -12 19 -44 70 -71 113 -27 43 -65 104 -85 135 -20
31 -62 100 -94 152 -57 93 -77 124 -166 265 -24 39 -51 82 -58 98 -8 15 -18
27 -23 27 -4 0 -8 5 -8 11 0 6 -13 31 -30 56 -16 24 -30 48 -30 53 0 4 -3 10
-7 12 -8 3 -112 168 -145 229 -9 17 -22 38 -30 47 -12 15 -34 49 -119 190 -9
15 -93 150 -188 301 -94 151 -171 277 -171 281 0 3 -8 15 -18 26 -10 10 -21
26 -25 34 -3 8 -26 45 -49 82 -24 38 -83 132 -132 210 -49 79 -109 176 -135
216 -25 40 -50 80 -56 89 -5 9 -45 72 -87 140 -43 69 -78 127 -78 129 0 3 -5
10 -11 17 -18 21 -389 620 -389 629 0 4 -4 8 -10 8 -5 0 -10 7 -10 15 0 8 -4
15 -8 15 -4 0 -13 12 -20 28 -6 15 -41 72 -77 127 -36 55 -70 109 -75 120 -6
11 -23 39 -38 62 -15 23 -47 75 -72 115 -24 40 -54 87 -67 104 -13 17 -23 34
-23 38 0 7 -6 16 -68 108 -18 25 -32 49 -32 53 0 3 -13 26 -30 50 -16 24 -30
48 -30 54 0 6 -4 11 -8 11 -5 0 -15 12 -23 28 -7 15 -26 46 -41 69 -15 23 -28
46 -28 51 0 6 -4 12 -8 14 -5 2 -30 39 -57 83 -26 44 -57 94 -69 110 -11 17
-21 32 -21 35 0 3 -18 32 -39 65 -21 33 -50 79 -65 102 -14 24 -40 64 -56 90
-17 27 -48 77 -70 113 -21 36 -43 67 -47 68 -4 2 -8 7 -8 12 0 4 -26 49 -57
99 -32 51 -67 107 -78 126 -47 80 -250 401 -263 418 -8 9 -11 17 -6 17 5 0 4
4 -2 8 -13 8 -114 170 -114 182 0 5 -3 10 -8 12 -10 4 -292 457 -292 469 0 5
-4 9 -8 9 -5 0 -15 12 -23 28 -7 15 -49 83 -92 151 -44 69 -82 132 -85 140 -3
9 -9 18 -13 21 -3 3 -29 40 -55 84 -27 43 -59 95 -72 115 -13 20 -25 44 -29
54 -3 9 -9 17 -13 17 -5 0 -12 10 -16 23 -4 12 -10 24 -14 27 -4 3 -44 64 -89
137 -96 155 -158 226 -249 287 -107 70 -195 97 -333 102 -63 2 -118 2 -120 -1z
m762 -2905 c5 0 9 -6 9 -13 0 -7 8 -22 18 -33 9 -11 26 -35 36 -54 11 -19 39
-65 63 -101 24 -36 43 -69 43 -73 0 -4 9 -16 20 -28 11 -12 20 -28 20 -35 0
-7 5 -13 10 -13 6 0 10 -5 10 -10 0 -6 18 -38 40 -71 22 -33 40 -65 40 -70 0
-5 5 -9 10 -9 6 0 10 -5 10 -10 0 -12 51 -92 65 -102 5 -4 6 -8 2 -8 -4 0 -3
-6 3 -12 11 -13 230 -361 265 -422 11 -19 45 -74 76 -123 31 -48 88 -140 127
-203 39 -63 75 -120 80 -125 5 -6 11 -16 13 -21 8 -21 254 -409 261 -412 5 -2
8 -12 8 -22 0 -10 4 -20 9 -22 10 -4 91 -134 91 -147 0 -5 4 -11 9 -13 5 -1
30 -39 57 -83 26 -44 52 -81 56 -83 4 -2 8 -8 8 -13 0 -5 25 -48 55 -94 30
-47 55 -90 55 -95 0 -6 5 -10 10 -10 6 0 10 -4 10 -10 0 -5 25 -48 55 -95 30
-46 55 -89 55 -94 0 -5 4 -11 8 -13 4 -1 26 -32 47 -68 21 -36 43 -66 47 -68
4 -2 8 -7 8 -12 0 -12 301 -494 311 -498 5 -2 9 -12 9 -22 0 -11 6 -23 13 -27
8 -4 20 -20 28 -35 25 -48 83 -143 89 -148 4 -3 15 -18 24 -35 9 -16 26 -43
36 -60 11 -16 23 -38 26 -47 4 -10 10 -18 14 -18 4 0 13 -13 20 -30 7 -16 16
-30 21 -30 5 0 8 -3 7 -7 -1 -5 9 -26 23 -48 14 -22 83 -132 153 -245 71 -113
136 -216 145 -230 10 -14 20 -32 24 -40 4 -8 20 -34 35 -57 66 -103 132 -211
132 -218 0 -4 -7 -5 -15 -1 -8 3 -15 2 -15 -2 0 -8 -78 -7 -87 1 -3 4 -14 2
-24 -3 -10 -6 -20 -6 -23 -2 -3 5 -28 6 -56 2 -27 -4 -50 -2 -50 2 0 5 -8 5
-17 -1 -11 -6 -24 -6 -35 0 -9 5 -19 6 -22 1 -3 -6 -61 -8 -61 -2 0 1 -21 2
-48 3 -26 1 -47 -1 -47 -4 0 -7 -55 -3 -69 5 -5 4 -12 2 -16 -4 -4 -7 -12 -7
-25 0 -12 6 -21 7 -25 0 -3 -5 -15 -6 -28 -1 -12 5 -34 5 -49 0 -15 -4 -30 -4
-33 1 -3 5 -15 6 -29 0 -12 -4 -29 -4 -36 0 -8 5 -19 6 -25 2 -9 -7 -31 -8
-45 -3 -14 5 -100 5 -100 0 0 -7 -55 -3 -69 5 -5 4 -12 2 -16 -4 -4 -7 -12 -7
-25 0 -12 6 -21 7 -25 0 -3 -5 -15 -6 -28 -1 -12 5 -34 5 -49 0 -15 -4 -30 -4
-33 1 -3 5 -15 6 -29 0 -12 -4 -29 -4 -36 0 -8 5 -19 6 -25 2 -9 -7 -31 -8
-45 -3 -13 5 -100 5 -100 1 0 -3 -20 -5 -45 -5 -25 0 -45 4 -45 8 0 4 -8 4
-17 -2 -11 -6 -24 -6 -35 0 -9 5 -19 6 -22 1 -3 -6 -61 -8 -61 -2 0 1 -21 2
-48 3 -26 1 -47 -1 -47 -4 0 -7 -55 -3 -69 5 -5 4 -12 2 -16 -4 -4 -7 -12 -7
-25 0 -12 6 -21 7 -25 0 -3 -5 -15 -6 -28 -1 -12 5 -34 5 -49 0 -15 -4 -30 -4
-33 1 -3 5 -15 6 -29 0 -12 -4 -29 -4 -36 0 -8 5 -19 6 -25 2 -9 -7 -31 -8
-45 -3 -14 5 -100 5 -100 0 0 -7 -55 -3 -69 5 -5 4 -12 2 -16 -4 -4 -7 -12 -7
-25 0 -12 6 -21 7 -25 0 -3 -5 -15 -6 -28 -1 -12 5 -34 5 -49 0 -15 -4 -30 -4
-33 1 -3 5 -15 6 -29 0 -12 -4 -29 -4 -36 0 -8 5 -19 6 -25 2 -9 -7 -31 -8
-45 -3 -14 5 -100 5 -100 0 0 -7 -55 -3 -69 5 -5 4 -12 2 -16 -4 -4 -7 -12 -7
-26 0 -12 7 -19 7 -19 1 0 -6 -11 -6 -30 -1 -16 5 -31 6 -31 2 -1 -4 -5 7 -8
23 -4 17 -4 40 0 52 5 12 4 25 -1 28 -5 3 -5 18 0 34 4 16 6 32 4 34 -7 7 -9
106 -2 112 3 4 2 19 -2 35 -4 16 -6 31 -3 34 4 3 5 29 4 58 -2 52 -2 65 0 91
0 6 0 21 -1 32 0 11 0 27 0 35 1 8 1 24 0 35 0 11 0 27 0 35 0 8 0 39 -1 68
-1 29 0 55 4 58 3 3 1 18 -3 34 -4 16 -6 31 -3 34 8 7 7 105 -1 113 -3 3 -1
13 4 22 5 10 5 23 0 31 -4 7 -4 24 0 36 6 14 5 26 0 29 -5 3 -5 18 -1 33 4 15
5 38 1 52 -3 14 -3 42 0 62 4 20 4 42 -1 49 -4 7 -4 20 1 29 5 9 5 22 0 30 -4
7 -4 24 0 36 6 14 5 26 0 29 -5 3 -5 18 0 34 4 16 6 32 4 34 -7 7 -9 106 -2
112 3 4 2 19 -2 35 -4 16 -6 31 -3 34 4 3 5 29 4 58 -2 52 -2 65 0 91 0 6 0
21 -1 32 0 11 0 27 0 35 1 8 1 24 0 35 0 11 0 27 0 35 0 8 0 39 -1 68 -1 29 0
55 4 58 3 3 1 18 -3 34 -4 16 -6 31 -3 34 8 7 7 105 -1 113 -3 3 -1 13 4 22 5
10 5 23 0 31 -4 7 -4 24 0 36 6 14 5 26 0 29 -5 3 -5 18 0 34 4 16 6 32 4 34
-7 7 -9 106 -2 112 3 4 2 19 -2 35 -4 16 -6 31 -3 34 4 3 5 29 4 58 -2 52 -2
65 0 91 0 6 0 21 -1 32 0 11 0 27 0 35 1 8 1 24 0 35 0 11 0 27 0 35 0 8 0 39
-1 68 -1 29 0 55 4 58 3 3 1 18 -3 34 -4 16 -6 31 -3 34 8 7 7 105 -1 113 -3
3 -1 13 4 22 5 10 5 23 0 31 -4 7 -4 24 0 36 6 14 5 26 0 29 -5 3 -5 18 0 34
4 16 6 32 4 34 -7 7 -9 106 -2 112 3 4 2 19 -2 35 -4 16 -6 31 -3 34 4 3 5 29
4 58 -2 52 -2 65 0 91 0 6 0 21 -1 32 0 11 0 27 0 35 1 8 1 24 0 35 0 11 0 27
0 35 0 8 0 39 -1 68 -1 29 0 55 4 58 3 3 1 18 -3 34 -4 16 -6 31 -3 34 8 7 7
105 -1 113 -3 3 -1 13 4 22 5 10 5 23 0 31 -4 7 -4 24 0 36 6 14 5 26 0 29 -5
3 -5 18 0 34 4 16 6 32 4 34 -7 7 -9 106 -2 112 3 4 2 19 -2 35 -4 16 -6 31
-3 34 4 3 5 27 5 53 -5 136 -3 173 5 141 2 -10 9 -18 14 -18z"/>
</g>
</svg>
